<?xml version="1.0" encoding="utf-8"?>
<!-- Generator: Adobe Illustrator 27.7.0, SVG Export Plug-In . SVG Version: 6.00 Build 0)  -->
<svg version="1.1" id="Livello_1" xmlns="http://www.w3.org/2000/svg" xmlns:xlink="http://www.w3.org/1999/xlink" x="0px" y="0px"
	 viewBox="0 0 2813.6 1057.6" style="enable-background:new 0 0 2813.6 1057.6;" xml:space="preserve">
<style type="text/css">
	.st0{fill:#9A795A;}
	.st1{fill:#FFFFFF;}
</style>
<g>
	<path class="st0" d="M834.5,673.6h-56.7v153h50.7c24.1,0,42.8-7.4,55.8-21.9c12.9-14.5,19.5-32.8,19.5-54.3
		c0-21.5-6.4-39.9-18.9-54.5C872.3,681,855.3,673.6,834.5,673.6z M859.4,788.5c-8.1,8.8-18.2,13.2-29.9,13.2h-21.2V697.6h24.4
		c11.6,0,21.1,4.9,28.2,14.7c7.2,9.9,10.8,22.2,10.8,36.5C871.7,766.3,867.6,779.7,859.4,788.5z"/>
	<polygon class="st0" points="1014.6,761.1 1070.5,761.1 1070.5,736.7 1014.6,736.7 1014.6,698.6 1084.2,698.6 1084.2,673.6 
		984.8,673.6 984.8,826.5 1085.1,826.5 1085.1,800.5 1014.6,800.5 	"/>
	<path class="st0" d="M1234.9,736.3l-25.6-6.4c-13.2-3.3-19.9-8.9-19.9-16.8c0-5.1,2-9.1,6.2-12.4c4.2-3.3,10.4-5,18.5-5
		c14,0,22.7,5.3,26.5,16.2l0.4,1.1l28.2-7l-0.4-1.3c-2.9-10.7-9.6-19-20.1-24.8c-10.3-5.7-22.2-8.6-35.3-8.6
		c-15.8,0-29,4.2-39.2,12.5c-10.3,8.3-15.5,19.6-15.5,33.3c0,6.9,1.5,13.5,4.4,19.6c2.9,6.1,6.9,10.9,11.7,14.3
		c4.8,3.3,12.3,6.4,22.2,8.9l28.7,7.5c7.3,1.9,12.2,4.5,14.3,7.7c2.2,3.2,3.3,6.8,3.3,10.7c0,5.3-2.4,9.6-7.2,13.1
		c-4.9,3.6-12.1,5.5-21.4,5.5c-20.5,0-32-7-35-21.3l-0.3-1.3l-29,6.2l0.4,1.4c3.8,13.5,11.5,23.6,22.9,30
		c11.3,6.3,24.7,9.5,39.8,9.5c17.9,0,32.7-4.4,44-13c11.4-8.7,17.2-20.8,17.2-35.9c0-9.4-2.7-18.1-8.2-25.9
		C1261.4,746.2,1250.6,740.2,1234.9,736.3z"/>
	<rect x="1356.5" y="673.6" class="st0" width="29.7" height="153"/>
	<path class="st0" d="M1535.1,771.5h31c-0.2,9.5-3.2,17.3-8.7,23.1c-5.8,6.1-13.2,9.2-22,9.2c-23.1,0-34.4-18.2-34.4-55.6
		c0-17.6,3.3-30.8,9.8-39.2c6.4-8.3,14.8-12.5,25-12.5c16.1,0,26,8.7,30.3,26.5l0.3,1.2l26.1-4.6l-0.3-1.3
		c-2.6-13.3-9-24.6-18.9-33.5c-10-9-22.8-13.5-38.2-13.5c-20.6,0-36.9,7.8-48.4,23c-11.4,15.2-17.2,33.9-17.2,55.8
		c0,20.6,5.2,39.1,15.4,54.8c10.3,15.9,26.1,24,47,24c17.8,0,31.4-7.1,40.4-21l7.6,18.7h14.2V747h-59.1V771.5z"/>
	<path class="st0" d="M1775.4,673.6v101.2c-4.4-7.4-6.7-11.4-7.1-12l-53-89.2h-32v153h24.5V720c0.6,1.1,1.2,2,1.6,2.7l4.3,7.2
		l57.4,96.7h28.4v-153H1775.4z"/>
</g>
<g>
	<polygon points="236.5,243.5 188.2,380.4 155,470.1 63.9,239.5 -1.8,241.6 0.2,559.3 46.7,556.9 44.6,421.3 44.6,324.5 
		136.7,559.1 170.9,555.1 218,422.8 254.3,324.9 256.2,559.1 307.3,559.1 305.2,239.4 	"/>
	<path d="M516.1,243.7l-74.9,237.1l-23.1,71.1l-1,5.2l-0.7,2.2l5.7-0.2l41.9-4.3l24.5-84.5l100.8-3.9l36.1,92.6h51.5l-106-319.6
		L516.1,243.7z M519.3,427.7h-14.4L541.4,314l29.3,85.6l8.5,26.4L519.3,427.7z"/>
	<path d="M967.6,241.7v210c0,3.8,0,8,0.2,12.8L831,239.5l-56.7,2.1l2,317.6l44.9-2.4V325.7c0-2.4,0-5.2-0.2-8.3l146.6,241.7h46.2
		l-2-319.7L967.6,241.7z"/>
	<polygon points="1650.8,511.5 1649,416.3 1773.3,414.4 1770.9,369.2 1650.8,371.2 1649,289 1805.1,287 1802.7,239.5 1596.6,241.6 
		1598.6,559.1 1809.3,559.1 1806.9,509.5 	"/>
	<polygon points="1973.6,511.4 1971.6,239.4 1918.4,241.7 1920.5,559.1 2114,559.1 2111.6,509.4 	"/>
	<polygon points="2264.4,511.4 2262.4,239.4 2209.3,241.7 2211.3,559.1 2404.8,559.1 2402.5,509.4 	"/>
	<path d="M2679.1,280.6c-24.1-31.4-56.6-47.3-96.6-47.3c-40.1,0-72.8,16.2-97.1,48.1c-23.8,31.3-35.9,71.2-35.9,118.8
		c0,45.5,11.5,84.6,34.2,116.2c23.2,32.4,56.1,48.9,97.7,48.9c42.2,0,75.5-17.3,99-51.4c22.9-33.2,34.4-72.5,34.4-117
		C2714.8,350.5,2702.8,311.4,2679.1,280.6z M2582.2,518.2c-22.7,0-41.2-10.6-55-31.4c-14.4-21.8-21.8-50.9-21.8-86.4
		c0-36.4,7.3-66,21.6-88.1c13.6-21,32.1-31.6,55-31.6c22.7,0,41.2,9.8,55,29.3c14.4,20.2,21.7,49.4,21.7,86.7
		c0,36.5-7.1,66.4-21.2,89.1C2624.2,507.3,2605.6,518.2,2582.2,518.2z"/>
	<polygon points="1432.6,223.4 1431.9,218.3 1431.9,215.9 1426.7,217.7 1388,233.6 1389.9,515.6 1219.5,517.5 1217.6,338.2 
		1217.6,286.8 1217,281.6 1216.9,279.3 1211.7,281.1 1173,297 1175,562.1 1434.6,562.1 1432.6,297.7 	"/>
</g>
<polygon class="st0" points="1432.5,0 1173,2.1 1173,219.3 1219.6,203.8 1217.6,46.6 1388.1,44.7 1390,125.2 1390,147.7 
	1390.6,152.9 1390.7,155.1 1434.6,140.3 "/>
<g>
	<path d="M2782.5,232.2c17.4,0,31.3,13.5,31.3,30.7c0,17.2-13.9,30.9-31.5,30.9c-17.6,0-31.7-13.7-31.7-30.9
		c0-17.3,14.1-30.7,31.7-30.7H2782.5z M2782.1,238.4c-13.3,0-23.6,11.1-23.6,24.6c0,13.7,10.3,24.5,24,24.5
		c13.3,0.2,23.4-10.9,23.4-24.4c0-13.7-10.2-24.8-23.6-24.8H2782.1z M2777.4,278.9h-7.1v-30.7c2.8-0.4,6.7-0.9,11.8-0.9
		c5.8,0,8.4,0.9,10.5,2.4c1.9,1.3,3.2,3.6,3.2,6.6c0,3.8-2.8,6.2-6.4,7.3v0.4c3,0.9,4.5,3.4,5.4,7.5c0.9,4.7,1.7,6.4,2.2,7.5h-7.5
		c-0.9-1.1-1.5-3.8-2.4-7.5c-0.5-3.2-2.4-4.7-6.4-4.7h-3.4V278.9z M2777.6,261.7h3.4c3.9,0,7.1-1.3,7.1-4.5c0-2.8-2.1-4.7-6.6-4.7
		c-1.9,0-3.2,0.2-3.9,0.4V261.7z"/>
</g>
<g>
	<path d="M-4202.8,673.6h-56.7v153h50.7c24.1,0,42.8-7.4,55.8-21.9c12.9-14.5,19.5-32.8,19.5-54.3c0-21.5-6.4-39.9-18.9-54.5
		C-4165.1,681-4182,673.6-4202.8,673.6z M-4177.9,788.5c-8.1,8.8-18.2,13.2-29.9,13.2h-21.2V697.6h24.4c11.6,0,21.1,4.9,28.2,14.7
		c7.2,9.9,10.8,22.2,10.8,36.5C-4165.6,766.3-4169.7,779.7-4177.9,788.5z"/>
	<polygon points="-4022.8,761.1 -3966.8,761.1 -3966.8,736.7 -4022.8,736.7 -4022.8,698.6 -3953.2,698.6 -3953.2,673.6 
		-4052.5,673.6 -4052.5,826.5 -3952.2,826.5 -3952.2,800.5 -4022.8,800.5 	"/>
	<path d="M-3802.4,736.3l-25.6-6.4c-13.2-3.3-19.9-8.9-19.9-16.8c0-5.1,2-9.1,6.2-12.4c4.2-3.3,10.4-5,18.5-5
		c14,0,22.7,5.3,26.5,16.2l0.4,1.1l28.2-7l-0.4-1.3c-2.9-10.7-9.6-19-20.1-24.8c-10.3-5.7-22.2-8.6-35.3-8.6
		c-15.8,0-29,4.2-39.2,12.5c-10.3,8.3-15.5,19.6-15.5,33.3c0,6.9,1.5,13.5,4.4,19.6c2.9,6.1,6.9,10.9,11.7,14.3
		c4.8,3.3,12.3,6.4,22.2,8.9l28.7,7.5c7.3,1.9,12.2,4.5,14.3,7.7c2.2,3.2,3.3,6.8,3.3,10.7c0,5.3-2.4,9.6-7.2,13.1
		c-4.9,3.6-12.1,5.5-21.4,5.5c-20.5,0-32-7-35-21.3l-0.3-1.3l-29,6.2l0.4,1.4c3.8,13.5,11.5,23.6,22.9,30
		c11.3,6.3,24.7,9.5,39.8,9.5c17.9,0,32.7-4.4,44-13c11.4-8.7,17.2-20.8,17.2-35.9c0-9.4-2.7-18.1-8.2-25.9
		C-3775.9,746.2-3786.7,740.2-3802.4,736.3z"/>
	<rect x="-3680.9" y="673.6" width="29.7" height="153"/>
	<path d="M-3502.2,771.5h31c-0.2,9.5-3.2,17.3-8.7,23.1c-5.8,6.1-13.2,9.2-22,9.2c-23.1,0-34.4-18.2-34.4-55.6
		c0-17.6,3.3-30.8,9.8-39.2c6.4-8.3,14.8-12.5,25-12.5c16.1,0,26,8.7,30.3,26.5l0.3,1.2l26.1-4.6l-0.3-1.3
		c-2.6-13.3-9-24.6-18.9-33.5c-10-9-22.8-13.5-38.2-13.5c-20.6,0-36.9,7.8-48.4,23c-11.4,15.2-17.2,33.9-17.2,55.8
		c0,20.6,5.2,39.1,15.4,54.8c10.3,15.9,26.1,24,47,24c17.8,0,31.4-7.1,40.4-21l7.6,18.7h14.2V747h-59.1V771.5z"/>
	<path d="M-3262,673.6v101.2c-4.4-7.4-6.7-11.4-7.1-12l-53-89.2h-32v153h24.5V720c0.6,1.1,1.2,2,1.6,2.7l4.3,7.2l57.4,96.7h28.4
		v-153H-3262z"/>
</g>
<g>
	<polygon points="-4800.9,243.5 -4849.2,380.4 -4882.3,470.1 -4973.5,239.5 -5039.2,241.6 -5037.1,559.3 -4990.6,556.9 
		-4992.7,421.3 -4992.7,324.5 -4900.6,559.1 -4866.4,555.1 -4819.3,422.8 -4783,324.9 -4781.2,559.1 -4730.1,559.1 -4732.1,239.4 	
		"/>
	<path d="M-4521.2,243.7l-74.9,237.1l-23.1,71.1l-1,5.2l-0.7,2.2l5.7-0.2l41.9-4.3l24.5-84.5l100.8-3.9l36.1,92.6h51.5l-106-319.6
		L-4521.2,243.7z M-4518.1,427.7h-14.4l36.6-113.7l29.3,85.6l8.5,26.4L-4518.1,427.7z"/>
	<path d="M-4069.7,241.7v210c0,3.8,0,8,0.2,12.8l-136.8-225l-56.7,2.1l2,317.6l44.9-2.4V325.7c0-2.4,0-5.2-0.2-8.3l146.6,241.7h46.2
		l-2-319.7L-4069.7,241.7z"/>
	<polygon points="-3386.5,511.5 -3388.4,416.3 -3264,414.4 -3266.5,369.2 -3386.5,371.2 -3388.4,289 -3232.2,287 -3234.6,239.5 
		-3440.8,241.6 -3438.7,559.1 -3228.1,559.1 -3230.4,509.5 	"/>
	<polygon points="-3063.7,511.4 -3065.8,239.4 -3118.9,241.7 -3116.9,559.1 -2923.3,559.1 -2925.7,509.4 	"/>
	<polygon points="-2772.9,511.4 -2774.9,239.4 -2828.1,241.7 -2826,559.1 -2632.5,559.1 -2634.9,509.4 	"/>
	<path d="M-2358.3,280.6c-24.1-31.4-56.6-47.3-96.6-47.3c-40.1,0-72.8,16.2-97.1,48.1c-23.8,31.3-35.9,71.2-35.9,118.8
		c0,45.5,11.5,84.6,34.2,116.2c23.2,32.4,56.1,48.9,97.7,48.9c42.2,0,75.5-17.3,99-51.4c22.9-33.2,34.4-72.5,34.4-117
		C-2322.6,350.5-2334.6,311.4-2358.3,280.6z M-2455.1,518.2c-22.7,0-41.2-10.6-55-31.4c-14.4-21.8-21.8-50.9-21.8-86.4
		c0-36.4,7.3-66,21.6-88.1c13.6-21,32.1-31.6,55-31.6c22.7,0,41.2,9.8,55,29.3c14.4,20.2,21.7,49.4,21.7,86.7
		c0,36.5-7.1,66.4-21.2,89.1C-2413.1,507.3-2431.7,518.2-2455.1,518.2z"/>
	<polygon points="-3604.8,223.4 -3605.4,218.3 -3605.4,215.9 -3610.6,217.7 -3649.3,233.6 -3647.4,515.6 -3817.8,517.5 
		-3819.8,338.2 -3819.8,286.8 -3820.4,281.6 -3820.4,279.3 -3825.6,281.1 -3864.3,297 -3862.3,562.1 -3602.8,562.1 -3604.8,297.7 	
		"/>
</g>
<polygon points="-3604.8,0 -3864.3,2.1 -3864.3,219.3 -3817.7,203.8 -3819.7,46.6 -3649.3,44.7 -3647.4,125.2 -3647.4,147.7 
	-3646.7,152.9 -3646.7,155.1 -3602.7,140.3 "/>
<g>
	<path d="M-2254.8,232.2c17.4,0,31.3,13.5,31.3,30.7c0,17.2-13.9,30.9-31.5,30.9c-17.6,0-31.7-13.7-31.7-30.9
		c0-17.3,14.1-30.7,31.7-30.7H-2254.8z M-2255.2,238.4c-13.3,0-23.6,11.1-23.6,24.6c0,13.7,10.3,24.5,24,24.5
		c13.3,0.2,23.4-10.9,23.4-24.4c0-13.7-10.2-24.8-23.6-24.8H-2255.2z M-2259.9,278.9h-7.1v-30.7c2.8-0.4,6.7-0.9,11.8-0.9
		c5.8,0,8.4,0.9,10.5,2.4c1.9,1.3,3.2,3.6,3.2,6.6c0,3.8-2.8,6.2-6.4,7.3v0.4c3,0.9,4.5,3.4,5.4,7.5c0.9,4.7,1.7,6.4,2.2,7.5h-7.5
		c-0.9-1.1-1.5-3.8-2.4-7.5c-0.5-3.2-2.4-4.7-6.4-4.7h-3.4V278.9z M-2259.7,261.7h3.4c3.9,0,7.1-1.3,7.1-4.5c0-2.8-2.1-4.7-6.6-4.7
		c-1.9,0-3.2,0.2-3.9,0.4V261.7z"/>
</g>
<g>
	<path d="M-2231.1,1032.6h-757.5c-10,0-18.1-8.1-18.1-18.1V655.1c0-10,8.1-18.1,18.1-18.1h757.5c10,0,18.1,8.1,18.1,18.1v359.3
		C-2213,1024.5-2221.1,1032.6-2231.1,1032.6z"/>
	<path class="st1" d="M-2336.7,784.9c0,13.3-7.4,28.3-19.2,28.3c-8.4,0-12.3-8.2-12.3-19c0-13.3,8-17.3,17.5-19.7
		c4.6-1.1,9.9-1.5,14-1.5V784.9z M-2304.5,809c-1.1,1.3-4,4.2-7,4.2c-4.6,0-5.9-5.3-5.9-11.4v-56.2c0-13.5-10.1-17.5-28.7-17.5
		c-18.2,0-35.3,9.1-35.3,21.1c0,6.6,4.9,11,9.9,11s9.5-4.4,9.5-10.2c0-5.3-4.7-6.6-4.7-9.7c0-4.6,10.6-7.6,17.5-7.6
		c9.1,0,12.5,2.7,12.5,10.6v25c-5.7,0.4-14.2,1-23.5,2.8c-11.2,2.5-27.3,10.1-27.3,27.3c0,13.9,9.5,23,21.8,23
		c17.6,0,23.9-9.3,28.8-18.8h0.4c0.4,5.7,2.7,18.8,16.1,18.8c9.9,0,15.7-5.9,18.8-9.9L-2304.5,809z M-2398.4,800.6
		c-2.8,4.7-6.3,12.5-15,12.5c-9.3,0-9.3-8.7-9.3-16.3v-60.7h22v-4.6h-22v-26c-6.3,1.3-12,2.5-19.4,2.5v23.5h-14.4v4.6h14.4v60.7
		c0,19,4.9,24.7,19.9,24.7c18.2,0,24.1-11.4,27.3-19.5L-2398.4,800.6z M-2535.2,818.1h51.4v-4.6h-17.1V771
		c0-16.9,12.1-34.5,17.1-34.5c2.8,0,3.2,1.3,3.2,3.4c0,0.9-0.4,1.9-0.4,2.8c0,6.1,3.8,9.1,9.3,9.1c6.5,0,10.1-5.1,10.1-10.8
		c0-7.8-5.7-12.9-13.7-12.9c-15.9,0-23.5,16.9-26.4,24.3h-0.4V730c-5.7,0.8-10.6,1.5-18.8,1.5h-14.6v4.6h15.2v77.4h-15V818.1z
		 M-2588.6,821.5c25.8,0,43.6-23.9,43.6-46.7c0-22.8-17.8-46.7-43.6-46.7c-25.8,0-43.6,23.9-43.6,46.7
		C-2632.2,797.6-2614.4,821.5-2588.6,821.5 M-2609.8,774.8c0-22.4,0-42.1,21.3-42.1c21.3,0,21.3,19.7,21.3,42.1
		c0,22.4,0,42.1-21.3,42.1C-2609.8,817-2609.8,797.2-2609.8,774.8 M-2695.8,689.8h14.2c13.3,0,27.1,0.4,27.1,29
		c0,29.6-11.8,30.6-27.1,30.6h-14.2V689.8z M-2734.5,818.1h55v-4.6h-16.3v-59.6h16.9c17.3,0,49.2-4.7,49.2-36.1
		c0-30-36.8-32.6-49.2-32.6h-55.6v4.6h16.3v123.7h-16.3V818.1z M-2813,784.9c0,13.3-7.4,28.3-19.2,28.3c-8.4,0-12.3-8.2-12.3-19
		c0-13.3,8-17.3,17.5-19.7c4.6-1.1,9.9-1.5,14-1.5V784.9z M-2780.8,809c-1.1,1.3-4,4.2-7,4.2c-4.6,0-5.9-5.3-5.9-11.4v-56.2
		c0-13.5-10.1-17.5-28.7-17.5c-18.2,0-35.3,9.1-35.3,21.1c0,6.6,4.9,11,9.9,11c4.9,0,9.5-4.4,9.5-10.2c0-5.3-4.7-6.6-4.7-9.7
		c0-4.6,10.6-7.6,17.5-7.6c9.1,0,12.5,2.7,12.5,10.6v25c-5.7,0.4-14.2,1-23.5,2.8c-11.2,2.5-27.3,10.1-27.3,27.3
		c0,13.9,9.5,23,21.8,23c17.6,0,23.9-9.3,28.8-18.8h0.4c0.4,5.7,2.7,18.8,16.1,18.8c9.9,0,15.7-5.9,18.8-9.9L-2780.8,809z
		 M-2920.4,818.1h46.5v-4.6h-14V683.7c-5.7,0.8-11.8,1.5-19.9,1.5h-14.6v4.6h15.2v123.7h-13.1V818.1z"/>
	<path class="st1" d="M-2375.6,954.4c0-6.7,4.3-30.6,12.8-51.7c3.8-9.6,9.9-13.2,17.2-13.2c9,0,15.6,6.3,15.6,17.9
		c0,10.7-11.8,62.4-34.9,62.4C-2372.9,969.8-2375.6,962.9-2375.6,954.4 M-2304.9,948.1c-2.9,5.1-10.5,17.7-16.3,17.7
		c-2.9,0-3.6-2.4-3.6-5.2c0-2.5,1.1-7.8,2-11.4l15.9-60.8h-16.1l-2.7,10.5c-1.8-3.6-6.2-13.7-20.4-13.7c-20.1,0-47.6,26.2-47.6,53.7
		c0,19.4,9.9,35.3,25,35.3s22.8-10.1,26.6-15.6h0.4c0,5.4,0.5,15.6,12.5,15.6c15,0,24.2-17.5,27.7-24.1L-2304.9,948.1z
		 M-2495.9,970.9h17l11.2-44.1c3.1-11.9,13.7-35.1,32.9-35.1c4.7,0,7.8,2.3,7.8,6.3c0,3.4-1.4,8.3-2.7,13.4l-9,35.5
		c-1.3,4.5-2.7,10.9-2.7,15.4c0,7.4,6.1,11.9,13.6,11.9c18.6,0,26.4-18.8,29.7-26.4l-3.4-1.4c-1.6,3.3-9.9,21.3-18.1,21.3
		c-3.3,0-4.7-2-4.7-5.4c0-4.2,1.6-10.5,3.4-16.8l8-30.9c1.3-5.2,3.1-10.9,3.1-16.5c0-8.7-6.5-12.8-16.5-12.8
		c-18.1,0-29.3,10-37.1,19.9l-0.4-0.4l4.7-17.7c-7.4,0.7-14.5,1.4-23.7,1.4h-9l-1.1,4.3h16.3L-2495.9,970.9z M-2580.3,954.4
		c0-6.7,4.3-30.6,12.8-51.7c3.8-9.6,9.9-13.2,17.2-13.2c9,0,15.6,6.3,15.6,17.9c0,10.7-11.8,62.4-34.9,62.4
		C-2577.6,969.8-2580.3,962.9-2580.3,954.4 M-2509.6,948.1c-2.9,5.1-10.5,17.7-16.3,17.7c-2.9,0-3.6-2.4-3.6-5.2
		c0-2.5,1.1-7.8,2-11.4l15.9-60.8h-16.1l-2.7,10.5c-1.8-3.6-6.2-13.7-20.4-13.7c-20.1,0-47.6,26.2-47.6,53.7
		c0,19.4,9.9,35.3,25,35.3s22.8-10.1,26.6-15.6h0.4c0,5.4,0.5,15.6,12.5,15.6c15,0,24.2-17.5,27.7-24.1L-2509.6,948.1z
		 M-2618.7,866.7c5.8,0,10.3-4.5,10.3-10.3c0-5.8-4.5-10.3-10.3-10.3c-5.8,0-10.3,4.5-10.3,10.3
		C-2629,862.2-2624.5,866.7-2618.7,866.7 M-2610.6,946.3c-1.6,3.3-9.9,21.3-18.1,21.3c-3.3,0-4.7-2-4.7-5.4c0-4.2,1.8-10.5,3.4-16.8
		l15.2-58.4c-6.5,0.9-13,1.4-21.2,1.4h-12.3l-1.1,4.3h15.7l-14.1,54.1c-1.1,4.5-2.7,10.9-2.7,15.4c0,7.4,6.1,11.9,13.6,11.9
		c18.6,0,26.4-18.8,29.7-26.4L-2610.6,946.3z M-2667.7,946.3c-1.6,3.3-10,21.3-18.1,21.3c-3.3,0-4.7-2-4.7-5.4
		c0-4.2,1.8-10.5,3.4-16.8l26-102.5c-6.5,0.9-13,1.4-21.2,1.4h-14.1l-1.1,4.3h17.5l-25,98.2c-1.1,4.5-2.7,10.9-2.7,15.4
		c0,7.4,6.2,11.9,13.6,11.9c18.6,0,26.4-18.8,29.7-26.4L-2667.7,946.3z M-2794.7,954.4c0-6.7,4.3-30.6,12.8-51.7
		c3.8-9.6,10-13.2,17.2-13.2c9,0,15.6,6.3,15.6,17.9c0,10.7-11.8,62.4-34.9,62.4C-2791.9,969.8-2794.7,962.9-2794.7,954.4
		 M-2723.9,948.1c-2.9,5.1-10.5,17.7-16.3,17.7c-2.9,0-3.6-2.4-3.6-5.2c0-2.5,1.1-7.8,2-11.4l15.9-60.8h-16.1l-2.7,10.5
		c-1.8-3.6-6.1-13.7-20.4-13.7c-20.1,0-47.6,26.2-47.6,53.7c0,19.4,9.9,35.3,25,35.3s22.8-10.1,26.6-15.6h0.4
		c0,5.4,0.5,15.6,12.5,15.6c15,0,24.2-17.5,27.7-24.1L-2723.9,948.1z M-2826.7,946.3c-1.6,3.3-9.9,21.3-18.1,21.3
		c-4.5,0-6.5-1.1-6.5-5.4c0-3.1,0.9-7.8,2.5-13.4l15-56.1h16.3l1.1-4.3h-16.5l5.8-21.3c-7.1,1.1-13.2,1.1-17.2,1.1l-5.6,20.3h-13.2
		l-1.1,4.3h13.4l-14.6,54.1c-1.4,4.9-2.9,9.6-2.9,13.6c0,10.7,7.1,13.7,15.4,13.7c18.6,0,26.4-18.8,29.7-26.4L-2826.7,946.3z
		 M-2890.9,866.7c5.8,0,10.3-4.5,10.3-10.3c0-5.8-4.5-10.3-10.3-10.3c-5.8,0-10.3,4.5-10.3,10.3
		C-2901.2,862.2-2896.6,866.7-2890.9,866.7 M-2882.7,946.3c-1.6,3.3-9.9,21.3-18.1,21.3c-3.3,0-4.7-2-4.7-5.4
		c0-4.2,1.8-10.5,3.4-16.8l15.2-58.4c-6.5,0.9-13,1.4-21.2,1.4h-12.3l-1.1,4.3h15.7l-14.1,54.1c-1.1,4.5-2.7,10.9-2.7,15.4
		c0,7.4,6.1,11.9,13.6,11.9c18.6,0,26.4-18.8,29.7-26.4L-2882.7,946.3z"/>
	<path class="st1" d="M-2280.9,870h2.6c1.5,0,3.2,0.3,3.2,2.1c0,2.1-1.5,2.3-3.2,2.3h-2.6V870z M-2283.8,883.4h2.9v-6.7h1.8l4,6.7h3
		l-4.2-6.8c2.6-0.2,4.1-1.5,4.1-4.2c0-3.3-2-4.6-5.8-4.6h-5.8V883.4z M-2278.5,886.7c-5.8,0-10.4-4.7-10.4-11.1
		c0-6.5,4.7-11.1,10.4-11.1c5.8,0,10.4,4.7,10.4,11.1C-2268.1,882.1-2272.7,886.7-2278.5,886.7 M-2278.5,889.4
		c7.6,0,13.8-6.2,13.8-13.8s-6.2-13.8-13.8-13.8s-13.8,6.2-13.8,13.8S-2286.1,889.4-2278.5,889.4"/>
</g>
<path d="M2795.5,1057.6H2038c-10,0-18.1-8.1-18.1-18.1V680.1c0-10,8.1-18.1,18.1-18.1h757.5c10,0,18.1,8.1,18.1,18.1v359.3
	C2813.6,1049.5,2805.5,1057.6,2795.5,1057.6z"/>
<path class="st1" d="M2689.9,809.9c0,13.3-7.4,28.3-19.2,28.3c-8.4,0-12.3-8.2-12.3-19c0-13.3,8-17.3,17.5-19.7
	c4.6-1.1,9.9-1.5,14-1.5V809.9z M2722.1,834c-1.1,1.3-4,4.2-7,4.2c-4.6,0-5.9-5.3-5.9-11.4v-56.2c0-13.5-10.1-17.5-28.7-17.5
	c-18.2,0-35.3,9.1-35.3,21.1c0,6.6,4.9,11,9.9,11c4.9,0,9.5-4.4,9.5-10.2c0-5.3-4.7-6.6-4.7-9.7c0-4.6,10.6-7.6,17.5-7.6
	c9.1,0,12.5,2.7,12.5,10.6v25c-5.7,0.4-14.2,1-23.5,2.8c-11.2,2.5-27.3,10.1-27.3,27.3c0,13.9,9.5,23,21.8,23
	c17.6,0,23.9-9.3,28.8-18.8h0.4c0.4,5.7,2.7,18.8,16.1,18.8c9.9,0,15.7-5.9,18.8-9.9L2722.1,834z M2628.2,825.6
	c-2.8,4.7-6.3,12.5-15,12.5c-9.3,0-9.3-8.7-9.3-16.3v-60.7h22v-4.6h-22v-26c-6.3,1.3-12,2.5-19.4,2.5v23.5h-14.4v4.6h14.4v60.7
	c0,19,4.9,24.7,19.9,24.7c18.2,0,24.1-11.4,27.3-19.5L2628.2,825.6z M2491.4,843.1h51.4v-4.6h-17.1V796c0-16.9,12.1-34.5,17.1-34.5
	c2.8,0,3.2,1.3,3.2,3.4c0,0.9-0.4,1.9-0.4,2.8c0,6.1,3.8,9.1,9.3,9.1c6.5,0,10.1-5.1,10.1-10.8c0-7.8-5.7-12.9-13.7-12.9
	c-15.9,0-23.5,16.9-26.4,24.3h-0.4V755c-5.7,0.8-10.6,1.5-18.8,1.5h-14.6v4.6h15.2v77.4h-15V843.1z M2438.1,846.5
	c25.8,0,43.6-23.9,43.6-46.7s-17.8-46.7-43.6-46.7c-25.8,0-43.6,23.9-43.6,46.7S2412.2,846.5,2438.1,846.5 M2416.8,799.8
	c0-22.4,0-42.1,21.3-42.1s21.3,19.7,21.3,42.1c0,22.4,0,42.1-21.3,42.1S2416.8,822.2,2416.8,799.8 M2330.8,714.8h14.2
	c13.3,0,27.1,0.4,27.1,29c0,29.6-11.8,30.6-27.1,30.6h-14.2V714.8z M2292.1,843.1h55v-4.6h-16.3v-59.6h16.9
	c17.3,0,49.2-4.7,49.2-36.1c0-30-36.8-32.6-49.2-32.6h-55.6v4.6h16.3v123.7h-16.3V843.1z M2213.6,809.9c0,13.3-7.4,28.3-19.2,28.3
	c-8.4,0-12.3-8.2-12.3-19c0-13.3,8-17.3,17.5-19.7c4.6-1.1,9.9-1.5,14-1.5V809.9z M2245.9,834c-1.1,1.3-4,4.2-7,4.2
	c-4.6,0-5.9-5.3-5.9-11.4v-56.2c0-13.5-10.1-17.5-28.7-17.5c-18.2,0-35.3,9.1-35.3,21.1c0,6.6,4.9,11,9.9,11c4.9,0,9.5-4.4,9.5-10.2
	c0-5.3-4.7-6.6-4.7-9.7c0-4.6,10.6-7.6,17.5-7.6c9.1,0,12.5,2.7,12.5,10.6v25c-5.7,0.4-14.2,1-23.5,2.8
	c-11.2,2.5-27.3,10.1-27.3,27.3c0,13.9,9.5,23,21.8,23c17.6,0,23.9-9.3,28.8-18.8h0.4c0.4,5.7,2.7,18.8,16.1,18.8
	c9.9,0,15.7-5.9,18.8-9.9L2245.9,834z M2106.2,843.1h46.5v-4.6h-14V708.7c-5.7,0.8-11.8,1.5-19.9,1.5h-14.6v4.6h15.2v123.7h-13.1
	V843.1z"/>
<path class="st1" d="M2651,979.4c0-6.7,4.3-30.6,12.8-51.7c3.8-9.6,9.9-13.2,17.2-13.2c9,0,15.6,6.3,15.6,17.9
	c0,10.7-11.8,62.4-34.9,62.4C2653.7,994.8,2651,987.9,2651,979.4 M2721.7,973.1c-2.9,5.1-10.5,17.7-16.3,17.7
	c-2.9,0-3.6-2.4-3.6-5.2c0-2.5,1.1-7.8,2-11.4l15.9-60.8h-16.1l-2.7,10.5c-1.8-3.6-6.2-13.7-20.4-13.7c-20.1,0-47.6,26.2-47.6,53.7
	c0,19.4,9.9,35.3,25,35.3s22.8-10.1,26.6-15.6h0.4c0,5.4,0.5,15.6,12.5,15.6c15,0,24.2-17.5,27.7-24.1L2721.7,973.1z M2530.7,995.9
	h17l11.2-44.1c3.1-11.9,13.7-35.1,32.9-35.1c4.7,0,7.8,2.3,7.8,6.3c0,3.4-1.4,8.3-2.7,13.4l-9,35.5c-1.3,4.5-2.7,10.9-2.7,15.4
	c0,7.4,6.1,11.9,13.6,11.9c18.6,0,26.4-18.8,29.7-26.4l-3.4-1.4c-1.6,3.3-9.9,21.3-18.1,21.3c-3.3,0-4.7-2-4.7-5.4
	c0-4.2,1.6-10.5,3.4-16.8l8-30.9c1.3-5.2,3.1-10.9,3.1-16.5c0-8.7-6.5-12.8-16.5-12.8c-18.1,0-29.3,10-37.1,19.9l-0.4-0.4l4.7-17.7
	c-7.4,0.7-14.5,1.4-23.7,1.4h-9l-1.1,4.3h16.3L2530.7,995.9z M2446.3,979.4c0-6.7,4.3-30.6,12.8-51.7c3.8-9.6,9.9-13.2,17.2-13.2
	c9,0,15.6,6.3,15.6,17.9c0,10.7-11.8,62.4-34.9,62.4C2449,994.8,2446.3,987.9,2446.3,979.4 M2517,973.1
	c-2.9,5.1-10.5,17.7-16.3,17.7c-2.9,0-3.6-2.4-3.6-5.2c0-2.5,1.1-7.8,2-11.4l15.9-60.8h-16.1l-2.7,10.5c-1.8-3.6-6.2-13.7-20.4-13.7
	c-20.1,0-47.6,26.2-47.6,53.7c0,19.4,9.9,35.3,25,35.3s22.8-10.1,26.6-15.6h0.4c0,5.4,0.5,15.6,12.5,15.6c15,0,24.2-17.5,27.7-24.1
	L2517,973.1z M2407.9,891.7c5.8,0,10.3-4.5,10.3-10.3c0-5.8-4.5-10.3-10.3-10.3c-5.8,0-10.3,4.5-10.3,10.3
	C2397.6,887.2,2402.1,891.7,2407.9,891.7 M2416.1,971.3c-1.6,3.3-9.9,21.3-18.1,21.3c-3.3,0-4.7-2-4.7-5.4c0-4.2,1.8-10.5,3.4-16.8
	l15.2-58.4c-6.5,0.9-13,1.4-21.2,1.4h-12.3l-1.1,4.3h15.7l-14.1,54.1c-1.1,4.5-2.7,10.9-2.7,15.4c0,7.4,6.1,11.9,13.6,11.9
	c18.6,0,26.4-18.8,29.7-26.4L2416.1,971.3z M2358.9,971.3c-1.6,3.3-10,21.3-18.1,21.3c-3.3,0-4.7-2-4.7-5.4c0-4.2,1.8-10.5,3.4-16.8
	l26-102.5c-6.5,0.9-13,1.4-21.2,1.4h-14.1l-1.1,4.3h17.5l-25,98.2c-1.1,4.5-2.7,10.9-2.7,15.4c0,7.4,6.2,11.9,13.6,11.9
	c18.6,0,26.4-18.8,29.7-26.4L2358.9,971.3z M2231.9,979.4c0-6.7,4.3-30.6,12.8-51.7c3.8-9.6,10-13.2,17.2-13.2
	c9,0,15.6,6.3,15.6,17.9c0,10.7-11.8,62.4-34.9,62.4C2234.7,994.8,2231.9,987.9,2231.9,979.4 M2302.7,973.1
	c-2.9,5.1-10.5,17.7-16.3,17.7c-2.9,0-3.6-2.4-3.6-5.2c0-2.5,1.1-7.8,2-11.4l15.9-60.8h-16.1l-2.7,10.5c-1.8-3.6-6.1-13.7-20.4-13.7
	c-20.1,0-47.6,26.2-47.6,53.7c0,19.4,9.9,35.3,25,35.3c15,0,22.8-10.1,26.6-15.6h0.4c0,5.4,0.5,15.6,12.5,15.6
	c15,0,24.2-17.5,27.7-24.1L2302.7,973.1z M2199.9,971.3c-1.6,3.3-9.9,21.3-18.1,21.3c-4.5,0-6.5-1.1-6.5-5.4c0-3.1,0.9-7.8,2.5-13.4
	l15-56.1h16.3l1.1-4.3h-16.5l5.8-21.3c-7.1,1.1-13.2,1.1-17.2,1.1l-5.6,20.3h-13.2l-1.1,4.3h13.4l-14.6,54.1
	c-1.4,4.9-2.9,9.6-2.9,13.6c0,10.7,7.1,13.7,15.4,13.7c18.6,0,26.4-18.8,29.7-26.4L2199.9,971.3z M2135.7,891.7
	c5.8,0,10.3-4.5,10.3-10.3c0-5.8-4.5-10.3-10.3-10.3c-5.8,0-10.3,4.5-10.3,10.3C2125.4,887.2,2130,891.7,2135.7,891.7 M2143.9,971.3
	c-1.6,3.3-9.9,21.3-18.1,21.3c-3.3,0-4.7-2-4.7-5.4c0-4.2,1.8-10.5,3.4-16.8l15.2-58.4c-6.5,0.9-13,1.4-21.2,1.4h-12.3l-1.1,4.3
	h15.7l-14.1,54.1c-1.1,4.5-2.7,10.9-2.7,15.4c0,7.4,6.1,11.9,13.6,11.9c18.6,0,26.4-18.8,29.7-26.4L2143.9,971.3z"/>
<path class="st1" d="M2745.7,895h2.6c1.5,0,3.2,0.3,3.2,2.1c0,2.1-1.5,2.3-3.2,2.3h-2.6V895z M2742.8,908.4h2.9v-6.7h1.8l4,6.7h3
	l-4.2-6.8c2.6-0.2,4.1-1.5,4.1-4.2c0-3.3-2-4.6-5.8-4.6h-5.8V908.4z M2748.1,911.7c-5.8,0-10.4-4.7-10.4-11.1
	c0-6.5,4.7-11.1,10.4-11.1c5.8,0,10.4,4.7,10.4,11.1C2758.5,907.1,2753.9,911.7,2748.1,911.7 M2748.1,914.4
	c7.6,0,13.8-6.2,13.8-13.8c0-7.6-6.2-13.8-13.8-13.8s-13.8,6.2-13.8,13.8C2734.3,908.2,2740.5,914.4,2748.1,914.4"/>
</svg>
